<svg id="visual" viewBox="0 0 900 600" width="100%" height="100%" xmlns="http://www.w3.org/2000/svg"  version="1.1"><g transform="translate(-58.09773163507964 50.20156452305781)"><path d="M240.8 -437.4C342.3 -358.5 475.5 -355 552.2 -294.7C628.9 -234.3 648.9 -117.2 664.7 9.1C680.4 135.3 691.8 270.7 607.6 318C523.5 365.4 343.7 324.7 226.5 365.9C109.3 407 54.7 530 -12.7 552C-80 573.9 -160 494.8 -219.6 420.4C-279.2 346 -318.4 276.2 -387.9 206.9C-457.4 137.7 -557.2 68.8 -559.5 -1.3C-561.8 -71.5 -466.7 -143 -383 -187.7C-299.2 -232.3 -227 -250.1 -165 -351.9C-103.1 -453.6 -51.6 -639.3 9.1 -655C69.7 -670.7 139.3 -516.3 240.8 -437.4" fill="#BB004B"></path></g></svg>