<svg id="visual" viewBox="0 0 1000 1000" width="1000" height="1000" xmlns="http://www.w3.org/2000/svg" xmlns:xlink="http://www.w3.org/1999/xlink" version="1.1"><rect x="0" y="0" width="1000" height="1000" fill="#FF0066"></rect><g transform="translate(58.525693894908215 -101.0846937815005)"><path d="M387.8 -643.9C465.8 -626.5 467.2 -448.5 462.6 -314.4C458 -180.3 447.5 -90.2 501.8 31.3C556 152.8 675.1 305.7 668.4 420.3C661.8 534.9 529.4 611.2 397 688.2C264.7 765.1 132.3 842.5 -2.7 847.3C-137.8 852.1 -275.7 784.1 -420 714.1C-564.3 644.1 -715.2 572.1 -764.9 452.7C-814.7 333.3 -763.3 166.7 -733.9 17C-704.5 -132.7 -696.9 -265.3 -618.7 -335.3C-540.4 -405.3 -391.5 -412.7 -276.6 -408.8C-161.7 -405 -80.8 -390 37 -454.1C154.8 -518.2 309.7 -661.4 387.8 -643.9" fill="#BB004B"></path></g></svg>